# xmcd
#
# Track frame offsets:
#	150
#	20369
#	34999
#	47262
#	62332
#	74524
#	91374
#	102369
#	120154
#	130929
#	145944
#	160729
#	174747
#	190142
#	207359
#
# Disc length: 2977 seconds
#
# Revision: 0
# Processed by: cddbd v1.5.2PL0 Copyright (c) Steve Scherf et al.
# Submitted via: EasyCDDAExtractor 16.0.6.1
#
DISCID=c90b9f0f
DTITLE=Sergio Reis  - Mega Hits 
DYEAR=1900
DGENRE=Sertanejo 
TTITLE0=Pinga Em Mim 
TTITLE1=Panela Velha
TTITLE2=Chalana
TTITLE3=Último Pau De Arara
TTITLE4=Para Pedro 
TTITLE5=É Disso Que O Velho Gosta
TTITLE6=Peão Boiadeiro 
TTITLE7=Caminheiro 
TTITLE8=Pingo D'água 
TTITLE9=O Menino Da Porteira
TTITLE10=Saudade Da Minha Terra
TTITLE11=Reio Do Gado 
TTITLE12=Sina De Violeiro 
TTITLE13=Fico Louco De Ciúmes 
TTITLE14=A Volta Da Asa Branca 
EXTD=
EXTT0=
EXTT1=
EXTT2=
EXTT3=
EXTT4=
EXTT5=
EXTT6=
EXTT7=
EXTT8=
EXTT9=
EXTT10=
EXTT11=
EXTT12=
EXTT13=
EXTT14=
PLAYORDER=
